<?xml version="1.0" standalone="no"?>
<!DOCTYPE svg PUBLIC "-//W3C//DTD SVG 20010904//EN"
 "http://www.w3.org/TR/2001/REC-SVG-20010904/DTD/svg10.dtd">
<svg version="1.0" xmlns="http://www.w3.org/2000/svg"
 width="150.000000pt" height="133.000000pt" viewBox="0 0 150.000000 133.000000"
 preserveAspectRatio="xMidYMid meet">

<g transform="translate(0.000000,133.000000) scale(0.100000,-0.100000)"
fill="#000000" stroke="none">
<path d="M675 1234 c-68 -25 -122 -92 -140 -173 -5 -23 -4 -31 4 -27 6 4 11
16 11 27 0 34 58 108 103 131 28 14 61 22 97 22 113 1 191 -70 210 -190 l9
-59 -3 65 c-5 100 -45 162 -131 201 -47 22 -105 23 -160 3z"/>
<path d="M541 954 c0 -11 3 -14 6 -6 3 7 2 16 -1 19 -3 4 -6 -2 -5 -13z"/>
<path d="M951 944 c0 -11 3 -14 6 -6 3 7 2 16 -1 19 -3 4 -6 -2 -5 -13z"/>
<path d="M915 879 c-4 -6 -5 -12 -2 -15 2 -3 7 2 10 11 7 17 1 20 -8 4z"/>
<path d="M850 820 c-9 -6 -10 -10 -3 -10 6 0 15 5 18 10 8 12 4 12 -15 0z"/>
<path d="M690 738 c0 -19 13 -21 83 -18 l37 2 2 -144 2 -143 4 135 c4 182 6
177 -68 182 -52 3 -60 1 -60 -14z"/>
<path d="M316 474 c-36 -74 -66 -143 -66 -152 1 -9 31 44 68 118 l68 135 121
3 c119 3 122 2 126 -20 3 -13 4 -7 4 12 l-2 35 -126 3 -126 3 -67 -137z"/>
<path d="M867 603 c-4 -3 -6 -20 -6 -37 1 -24 3 -26 6 -8 4 21 8 22 129 22
l125 0 16 -37 c13 -33 67 -144 98 -204 9 -17 25 -26 25 -14 0 3 -32 68 -70
145 l-70 140 -123 0 c-68 0 -127 -3 -130 -7z"/>
<path d="M544 459 c-15 -30 -15 -33 4 -58 10 -14 32 -34 48 -43 35 -20 157
-41 193 -33 14 3 38 8 53 10 70 13 128 58 128 99 0 18 -3 17 -26 -11 -59 -76
-284 -87 -370 -18 -27 21 -28 25 -17 54 15 40 8 40 -13 0z"/>
<path d="M750 300 l-505 -5 502 -3 c326 -1 504 1 508 8 3 6 5 9 3 8 -2 -2
-230 -5 -508 -8z"/>
<path d="M238 258 c-3 -7 -5 -40 -5 -73 l0 -60 4 53 4 52 514 0 515 0 2 -57 2
-58 3 51 c2 27 -1 62 -6 77 l-11 27 -509 0 c-398 0 -510 -3 -513 -12z"/>
<path d="M248 83 c6 -2 18 -2 25 0 6 3 1 5 -13 5 -14 0 -19 -2 -12 -5z"/>
<path d="M523 83 c130 -2 344 -2 475 0 130 1 23 2 -238 2 -261 0 -368 -1 -237
-2z"/>
</g>
</svg>
